<?xml version="1.0" standalone="no"?>
<!DOCTYPE svg PUBLIC "-//W3C//DTD SVG 20010904//EN"
 "http://www.w3.org/TR/2001/REC-SVG-20010904/DTD/svg10.dtd">
<svg version="1.0" xmlns="http://www.w3.org/2000/svg"
 width="178.000000pt" height="178.000000pt" viewBox="0 0 178.000000 178.000000"
 preserveAspectRatio="xMidYMid meet">
<metadata>
Created by potrace 1.14, written by Peter Selinger 2001-2017
</metadata>
<g transform="translate(0.000000,178.000000) scale(0.100000,-0.100000)"
fill="#000000" stroke="none">
<path d="M848 1655 c-2 -1 -31 -5 -64 -9 -286 -30 -542 -259 -619 -555 -47
-179 -28 -356 57 -531 45 -90 64 -117 138 -190 96 -95 166 -141 279 -181 112
-39 262 -55 351 -37 19 4 49 9 65 12 169 30 373 175 469 333 42 71 83 165 91
215 3 18 10 51 15 73 16 69 5 241 -22 330 -75 253 -279 450 -534 515 -66 17
-216 34 -226 25z m142 -40 c241 -26 483 -222 573 -465 43 -117 56 -304 27
-409 l-11 -41 -77 42 c-110 59 -262 151 -367 221 -109 73 -344 247 -367 273
-11 12 -18 43 -21 87 -6 79 -17 102 -17 35 l0 -46 -43 0 c-42 0 -43 0 -42 34
1 18 -2 39 -7 46 -4 8 -8 -7 -9 -37 -1 -27 -2 -64 -3 -80 -3 -66 -117 -223
-300 -412 l-131 -136 -11 39 c-17 61 -17 188 2 277 62 305 320 544 619 573 33
4 61 7 63 9 3 2 37 0 122 -10z m-280 -333 c0 -5 -6 -16 -13 -26 -12 -17 -14
-16 -25 8 -11 24 -10 26 13 26 14 0 25 -4 25 -8z m-44 -56 c3 -14 1 -32 -4
-42 -8 -14 -10 -9 -14 24 -4 45 8 57 18 18z m62 -6 c-1 -30 -11 -39 -23 -20
-5 9 11 50 20 50 2 0 3 -13 3 -30z m267 -190 c141 -107 298 -209 452 -295 119
-66 122 -68 112 -94 -19 -49 -49 -107 -74 -141 l-25 -34 -1 80 c0 79 -5 124
-14 133 -3 2 -5 -25 -6 -60 -1 -35 -2 -92 -2 -126 l-2 -63 -82 0 -83 0 -1 48
c-1 26 -3 81 -4 122 -2 41 -3 102 -4 134 -1 33 -4 57 -7 53 -6 -6 -11 -110
-13 -264 l-1 -93 -65 0 -65 0 0 83 c-1 83 -7 352 -9 375 -1 6 -4 12 -8 12 -5
0 -9 -105 -11 -232 -2 -128 -4 -233 -5 -234 -7 -6 -108 -9 -116 -4 -9 5 -19
249 -20 499 -1 52 -4 92 -7 88 -3 -3 -8 -135 -11 -294 -3 -158 -7 -290 -9
-292 -8 -9 -146 -7 -151 3 -4 5 -7 187 -9 403 l-2 393 66 -58 c37 -33 117 -97
177 -142z m-371 118 c-1 -24 -2 -197 -3 -385 -1 -286 -3 -343 -15 -343 -8 0
-16 6 -18 13 -3 6 -6 98 -7 202 -3 247 -8 376 -15 383 -3 3 -6 -62 -7 -144 -1
-153 -6 -433 -8 -447 0 -4 -31 -7 -68 -5 l-68 3 -1 50 c-1 28 -3 107 -5 178
-1 70 -6 127 -11 127 -4 0 -8 -44 -9 -97 -1 -169 -6 -253 -13 -260 -12 -12
-38 11 -78 68 -34 48 -38 61 -38 117 0 35 -4 61 -9 58 -4 -3 -7 -21 -6 -40 2
-45 -9 -38 -28 17 l-14 43 116 120 c125 129 227 257 267 335 13 27 28 49 32
49 4 0 7 -19 6 -42z m80 16 c10 -25 7 -30 -19 -32 -28 -2 -29 1 -15 29 13 23
26 24 34 3z m16 -60 c0 -3 -8 -31 -17 -62 -11 -38 -18 -50 -21 -37 -2 11 -10
39 -17 62 l-13 43 34 0 c19 0 34 -3 34 -6z m-52 -184 c-15 -59 -16 -58 -17 20
0 70 1 73 13 45 9 -21 10 -41 4 -65z m57 30 c1 -66 -9 -79 -19 -26 -5 27 6 86
16 86 2 0 3 -27 3 -60z m-16 -118 c14 -48 13 -51 -16 -56 -36 -7 -41 6 -25 62
16 59 23 58 41 -6z m7 -83 c3 -5 -2 -33 -12 -61 l-17 -52 -14 48 c-8 27 -12
54 -10 60 6 14 44 18 53 5z m-48 -188 c-15 -55 -18 -50 -17 25 1 65 1 67 14
40 9 -21 10 -39 3 -65z m56 32 c-2 -60 -4 -64 -14 -32 -8 28 -2 79 9 79 3 0 5
-21 5 -47z m-11 -120 l14 -51 -36 2 c-20 1 -36 4 -35 6 12 61 28 110 34 103 4
-4 14 -31 23 -60z m-96 -126 c6 -7 12 -99 6 -109 -2 -4 -16 -2 -31 4 -41 18
-162 97 -162 106 0 9 178 7 187 -1z m113 -73 l0 -76 -32 6 c-48 10 -53 18 -50
85 l4 61 39 0 39 0 0 -76z m595 50 c-52 -43 -206 -114 -285 -130 -80 -16 -205
-21 -257 -10 l-32 7 2 80 1 79 300 0 301 -1 -30 -25z"/>
</g>
</svg>
